<mxfile host="app.diagrams.net" modified="2024-04-27T00:48:00.704Z" agent="Mozilla/5.0 (Windows NT 10.0; Win64; x64) AppleWebKit/537.36 (KHTML, like Gecko) Chrome/121.0.0.0 Safari/537.36 OPR/107.0.0.0" etag="2kH2suMdVGltE0ExbJkd" version="24.3.0" type="device">
  <diagram name="PÃ¡gina-1" id="f7Cp9DbIjE6QWBBVSDED">
    <mxGraphModel dx="1161" dy="632" grid="1" gridSize="10" guides="1" tooltips="1" connect="1" arrows="1" fold="1" page="1" pageScale="1" pageWidth="827" pageHeight="1169" math="0" shadow="0">
      <root>
        <mxCell id="0" />
        <mxCell id="1" parent="0" />
        <mxCell id="M5bQWKBqG0t6AI1R2ykT-1" value="view: View" style="shape=umlLifeline;perimeter=lifelinePerimeter;whiteSpace=wrap;html=1;container=1;collapsible=0;recursiveResize=0;outlineConnect=0;rounded=1;shadow=0;comic=0;labelBackgroundColor=none;strokeWidth=1;fontFamily=Verdana;fontSize=12;align=center;" parent="1" vertex="1">
          <mxGeometry x="280" y="80" width="100" height="1040" as="geometry" />
        </mxCell>
        <mxCell id="M5bQWKBqG0t6AI1R2ykT-2" value="" style="html=1;points=[];perimeter=orthogonalPerimeter;rounded=0;shadow=0;comic=0;labelBackgroundColor=none;strokeWidth=1;fontFamily=Verdana;fontSize=12;align=center;" parent="M5bQWKBqG0t6AI1R2ykT-1" vertex="1">
          <mxGeometry x="45" y="100" width="10" height="50" as="geometry" />
        </mxCell>
        <mxCell id="M5bQWKBqG0t6AI1R2ykT-3" value="1" style="html=1;verticalAlign=bottom;endArrow=open;dashed=1;endSize=8;edgeStyle=elbowEdgeStyle;elbow=vertical;curved=0;rounded=0;" parent="M5bQWKBqG0t6AI1R2ykT-1" target="M5bQWKBqG0t6AI1R2ykT-39" edge="1">
          <mxGeometry relative="1" as="geometry">
            <mxPoint x="45" y="139" as="sourcePoint" />
            <mxPoint x="-35" y="139" as="targetPoint" />
          </mxGeometry>
        </mxCell>
        <mxCell id="M5bQWKBqG0t6AI1R2ykT-4" value="" style="html=1;points=[];perimeter=orthogonalPerimeter;rounded=0;shadow=0;comic=0;labelBackgroundColor=none;strokeWidth=1;fontFamily=Verdana;fontSize=12;align=center;" parent="M5bQWKBqG0t6AI1R2ykT-1" vertex="1">
          <mxGeometry x="45" y="170" width="10" height="40" as="geometry" />
        </mxCell>
        <mxCell id="M5bQWKBqG0t6AI1R2ykT-5" value="" style="html=1;points=[];perimeter=orthogonalPerimeter;rounded=0;shadow=0;comic=0;labelBackgroundColor=none;strokeWidth=1;fontFamily=Verdana;fontSize=12;align=center;" parent="M5bQWKBqG0t6AI1R2ykT-1" vertex="1">
          <mxGeometry x="45" y="510" width="10" height="40" as="geometry" />
        </mxCell>
        <mxCell id="M5bQWKBqG0t6AI1R2ykT-6" value="1" style="html=1;verticalAlign=bottom;endArrow=open;dashed=1;endSize=8;edgeStyle=elbowEdgeStyle;elbow=vertical;curved=0;rounded=0;" parent="M5bQWKBqG0t6AI1R2ykT-1" edge="1">
          <mxGeometry relative="1" as="geometry">
            <mxPoint x="45" y="550" as="sourcePoint" />
            <mxPoint x="-130" y="550" as="targetPoint" />
            <mxPoint x="1" as="offset" />
          </mxGeometry>
        </mxCell>
        <mxCell id="M5bQWKBqG0t6AI1R2ykT-7" value="2. menuEmployee()" style="html=1;verticalAlign=bottom;endArrow=block;labelBackgroundColor=none;fontFamily=Verdana;fontSize=12;edgeStyle=elbowEdgeStyle;elbow=vertical;" parent="M5bQWKBqG0t6AI1R2ykT-1" edge="1">
          <mxGeometry x="-0.0039" relative="1" as="geometry">
            <mxPoint x="-125" y="520" as="sourcePoint" />
            <mxPoint x="45" y="520" as="targetPoint" />
            <Array as="points" />
            <mxPoint as="offset" />
          </mxGeometry>
        </mxCell>
        <mxCell id="M5bQWKBqG0t6AI1R2ykT-75" value="" style="html=1;points=[];perimeter=orthogonalPerimeter;rounded=0;shadow=0;comic=0;labelBackgroundColor=none;strokeWidth=1;fontFamily=Verdana;fontSize=12;align=center;" parent="M5bQWKBqG0t6AI1R2ykT-1" vertex="1">
          <mxGeometry x="45" y="580" width="10" height="40" as="geometry" />
        </mxCell>
        <mxCell id="M5bQWKBqG0t6AI1R2ykT-76" value="3" style="html=1;verticalAlign=bottom;endArrow=open;dashed=1;endSize=8;edgeStyle=elbowEdgeStyle;elbow=vertical;curved=0;rounded=0;" parent="M5bQWKBqG0t6AI1R2ykT-1" edge="1">
          <mxGeometry relative="1" as="geometry">
            <mxPoint x="45" y="620" as="sourcePoint" />
            <mxPoint x="-120" y="620" as="targetPoint" />
            <mxPoint x="1" as="offset" />
          </mxGeometry>
        </mxCell>
        <mxCell id="M5bQWKBqG0t6AI1R2ykT-77" value="2. menuManageProducts()" style="html=1;verticalAlign=bottom;endArrow=block;labelBackgroundColor=none;fontFamily=Verdana;fontSize=12;edgeStyle=elbowEdgeStyle;elbow=vertical;" parent="M5bQWKBqG0t6AI1R2ykT-1" edge="1">
          <mxGeometry relative="1" as="geometry">
            <mxPoint x="-125" y="590" as="sourcePoint" />
            <mxPoint x="45" y="590" as="targetPoint" />
            <Array as="points" />
            <mxPoint as="offset" />
          </mxGeometry>
        </mxCell>
        <mxCell id="M5bQWKBqG0t6AI1R2ykT-8" value=": Utils" style="shape=umlLifeline;perimeter=lifelinePerimeter;whiteSpace=wrap;html=1;container=1;collapsible=0;recursiveResize=0;outlineConnect=0;rounded=1;shadow=0;comic=0;labelBackgroundColor=none;strokeWidth=1;fontFamily=Verdana;fontSize=12;align=center;" parent="1" vertex="1">
          <mxGeometry x="610" y="80" width="100" height="1040" as="geometry" />
        </mxCell>
        <mxCell id="M5bQWKBqG0t6AI1R2ykT-9" value="" style="html=1;points=[];perimeter=orthogonalPerimeter;outlineConnect=0;targetShapes=umlLifeline;portConstraint=eastwest;newEdgeStyle={&quot;edgeStyle&quot;:&quot;elbowEdgeStyle&quot;,&quot;elbow&quot;:&quot;vertical&quot;,&quot;curved&quot;:0,&quot;rounded&quot;:0};" parent="M5bQWKBqG0t6AI1R2ykT-8" vertex="1">
          <mxGeometry x="45" y="300" width="10" height="40" as="geometry" />
        </mxCell>
        <mxCell id="M5bQWKBqG0t6AI1R2ykT-10" value="username" style="html=1;verticalAlign=bottom;endArrow=open;dashed=1;endSize=8;edgeStyle=elbowEdgeStyle;elbow=vertical;curved=0;rounded=0;" parent="M5bQWKBqG0t6AI1R2ykT-8" target="M5bQWKBqG0t6AI1R2ykT-49" edge="1">
          <mxGeometry relative="1" as="geometry">
            <mxPoint x="45" y="330" as="sourcePoint" />
            <mxPoint x="-35" y="330" as="targetPoint" />
          </mxGeometry>
        </mxCell>
        <mxCell id="M5bQWKBqG0t6AI1R2ykT-11" value="" style="html=1;points=[];perimeter=orthogonalPerimeter;outlineConnect=0;targetShapes=umlLifeline;portConstraint=eastwest;newEdgeStyle={&quot;edgeStyle&quot;:&quot;elbowEdgeStyle&quot;,&quot;elbow&quot;:&quot;vertical&quot;,&quot;curved&quot;:0,&quot;rounded&quot;:0};" parent="M5bQWKBqG0t6AI1R2ykT-8" vertex="1">
          <mxGeometry x="45" y="350" width="10" height="40" as="geometry" />
        </mxCell>
        <mxCell id="M5bQWKBqG0t6AI1R2ykT-78" value="insertProductNumber()" style="html=1;verticalAlign=bottom;endArrow=block;edgeStyle=elbowEdgeStyle;elbow=vertical;curved=0;rounded=0;" parent="M5bQWKBqG0t6AI1R2ykT-8" edge="1">
          <mxGeometry x="0.0006" width="80" relative="1" as="geometry">
            <mxPoint x="-430" y="748" as="sourcePoint" />
            <mxPoint x="600" y="748" as="targetPoint" />
            <mxPoint as="offset" />
            <Array as="points">
              <mxPoint x="-450" y="748" />
            </Array>
          </mxGeometry>
        </mxCell>
        <mxCell id="M5bQWKBqG0t6AI1R2ykT-82" value="" style="html=1;points=[];perimeter=orthogonalPerimeter;outlineConnect=0;targetShapes=umlLifeline;portConstraint=eastwest;newEdgeStyle={&quot;edgeStyle&quot;:&quot;elbowEdgeStyle&quot;,&quot;elbow&quot;:&quot;vertical&quot;,&quot;curved&quot;:0,&quot;rounded&quot;:0};" parent="M5bQWKBqG0t6AI1R2ykT-8" vertex="1">
          <mxGeometry x="45" y="758" width="10" height="120" as="geometry" />
        </mxCell>
        <mxCell id="M5bQWKBqG0t6AI1R2ykT-36" value="model: CompoStore" style="shape=umlLifeline;perimeter=lifelinePerimeter;whiteSpace=wrap;html=1;container=1;collapsible=0;recursiveResize=0;outlineConnect=0;rounded=1;shadow=0;comic=0;labelBackgroundColor=none;strokeWidth=1;fontFamily=Verdana;fontSize=12;align=center;" parent="1" vertex="1">
          <mxGeometry x="760" y="80" width="100" height="1040" as="geometry" />
        </mxCell>
        <mxCell id="M5bQWKBqG0t6AI1R2ykT-86" value="" style="html=1;points=[];perimeter=orthogonalPerimeter;outlineConnect=0;targetShapes=umlLifeline;portConstraint=eastwest;newEdgeStyle={&quot;edgeStyle&quot;:&quot;elbowEdgeStyle&quot;,&quot;elbow&quot;:&quot;vertical&quot;,&quot;curved&quot;:0,&quot;rounded&quot;:0};" parent="M5bQWKBqG0t6AI1R2ykT-36" vertex="1">
          <mxGeometry x="45" y="650" width="10" height="50" as="geometry" />
        </mxCell>
        <mxCell id="M5bQWKBqG0t6AI1R2ykT-101" value="delete(product)" style="html=1;verticalAlign=bottom;endArrow=block;edgeStyle=elbowEdgeStyle;elbow=vertical;curved=0;rounded=0;" parent="M5bQWKBqG0t6AI1R2ykT-36" target="M5bQWKBqG0t6AI1R2ykT-100" edge="1">
          <mxGeometry x="0.2268" width="80" relative="1" as="geometry">
            <mxPoint x="-330" y="930" as="sourcePoint" />
            <mxPoint x="700" y="930" as="targetPoint" />
            <mxPoint as="offset" />
            <Array as="points">
              <mxPoint x="-600" y="930" />
            </Array>
          </mxGeometry>
        </mxCell>
        <mxCell id="M5bQWKBqG0t6AI1R2ykT-39" value="controller: Controller" style="shape=umlLifeline;perimeter=lifelinePerimeter;whiteSpace=wrap;html=1;container=1;collapsible=0;recursiveResize=0;outlineConnect=0;rounded=1;shadow=0;comic=0;labelBackgroundColor=none;strokeWidth=1;fontFamily=Verdana;fontSize=12;align=center;" parent="1" vertex="1">
          <mxGeometry x="100" y="80" width="100" height="1040" as="geometry" />
        </mxCell>
        <mxCell id="M5bQWKBqG0t6AI1R2ykT-40" value="" style="html=1;points=[];perimeter=orthogonalPerimeter;rounded=0;shadow=0;comic=0;labelBackgroundColor=none;strokeWidth=1;fontFamily=Verdana;fontSize=12;align=center;" parent="M5bQWKBqG0t6AI1R2ykT-39" vertex="1">
          <mxGeometry x="45" y="100" width="10" height="920" as="geometry" />
        </mxCell>
        <mxCell id="M5bQWKBqG0t6AI1R2ykT-41" value="insertCredentials()" style="html=1;verticalAlign=bottom;endArrow=block;edgeStyle=elbowEdgeStyle;elbow=vertical;curved=0;rounded=0;" parent="M5bQWKBqG0t6AI1R2ykT-39" target="M5bQWKBqG0t6AI1R2ykT-50" edge="1">
          <mxGeometry width="80" relative="1" as="geometry">
            <mxPoint x="55" y="240" as="sourcePoint" />
            <mxPoint x="135" y="240" as="targetPoint" />
          </mxGeometry>
        </mxCell>
        <mxCell id="M5bQWKBqG0t6AI1R2ykT-42" value="Login()" style="html=1;verticalAlign=bottom;endArrow=block;edgeStyle=elbowEdgeStyle;elbow=vertical;curved=0;rounded=0;" parent="M5bQWKBqG0t6AI1R2ykT-39" target="M5bQWKBqG0t6AI1R2ykT-60" edge="1">
          <mxGeometry x="0.0006" width="80" relative="1" as="geometry">
            <mxPoint x="55" y="457" as="sourcePoint" />
            <mxPoint x="890" y="457" as="targetPoint" />
            <mxPoint as="offset" />
          </mxGeometry>
        </mxCell>
        <mxCell id="M5bQWKBqG0t6AI1R2ykT-46" value="1. menuMain()" style="html=1;verticalAlign=bottom;endArrow=block;labelBackgroundColor=none;fontFamily=Verdana;fontSize=12;edgeStyle=elbowEdgeStyle;elbow=vertical;entryX=0.5;entryY=0.043;entryDx=0;entryDy=0;entryPerimeter=0;" parent="1" source="M5bQWKBqG0t6AI1R2ykT-40" target="M5bQWKBqG0t6AI1R2ykT-2" edge="1">
          <mxGeometry relative="1" as="geometry">
            <mxPoint x="220" y="190" as="sourcePoint" />
            <mxPoint x="280" y="190" as="targetPoint" />
            <Array as="points" />
          </mxGeometry>
        </mxCell>
        <mxCell id="M5bQWKBqG0t6AI1R2ykT-47" value="2" style="html=1;verticalAlign=bottom;endArrow=open;dashed=1;endSize=8;edgeStyle=elbowEdgeStyle;elbow=vertical;curved=0;rounded=0;" parent="1" edge="1">
          <mxGeometry relative="1" as="geometry">
            <mxPoint x="325" y="290" as="sourcePoint" />
            <mxPoint x="150" y="290" as="targetPoint" />
            <mxPoint x="1" as="offset" />
          </mxGeometry>
        </mxCell>
        <mxCell id="M5bQWKBqG0t6AI1R2ykT-48" value="2. menuLogin()" style="html=1;verticalAlign=bottom;endArrow=block;labelBackgroundColor=none;fontFamily=Verdana;fontSize=12;edgeStyle=elbowEdgeStyle;elbow=vertical;" parent="1" edge="1">
          <mxGeometry relative="1" as="geometry">
            <mxPoint x="155" y="260" as="sourcePoint" />
            <mxPoint x="325" y="260" as="targetPoint" />
            <Array as="points" />
            <mxPoint as="offset" />
          </mxGeometry>
        </mxCell>
        <mxCell id="M5bQWKBqG0t6AI1R2ykT-49" value="viewLogin: ViewLogin&amp;nbsp;" style="shape=umlLifeline;perimeter=lifelinePerimeter;whiteSpace=wrap;html=1;container=1;collapsible=0;recursiveResize=0;outlineConnect=0;rounded=1;shadow=0;comic=0;labelBackgroundColor=none;strokeWidth=1;fontFamily=Verdana;fontSize=12;align=center;" parent="1" vertex="1">
          <mxGeometry x="410" y="80" width="150" height="1040" as="geometry" />
        </mxCell>
        <mxCell id="M5bQWKBqG0t6AI1R2ykT-50" value="" style="html=1;points=[];perimeter=orthogonalPerimeter;outlineConnect=0;targetShapes=umlLifeline;portConstraint=eastwest;newEdgeStyle={&quot;edgeStyle&quot;:&quot;elbowEdgeStyle&quot;,&quot;elbow&quot;:&quot;vertical&quot;,&quot;curved&quot;:0,&quot;rounded&quot;:0};" parent="M5bQWKBqG0t6AI1R2ykT-49" vertex="1">
          <mxGeometry x="70" y="230" width="10" height="200" as="geometry" />
        </mxCell>
        <mxCell id="M5bQWKBqG0t6AI1R2ykT-51" value="getString()" style="html=1;verticalAlign=bottom;endArrow=block;edgeStyle=elbowEdgeStyle;elbow=vertical;curved=0;rounded=0;" parent="M5bQWKBqG0t6AI1R2ykT-49" target="M5bQWKBqG0t6AI1R2ykT-8" edge="1">
          <mxGeometry x="0.0029" width="80" relative="1" as="geometry">
            <mxPoint x="80" y="310" as="sourcePoint" />
            <mxPoint x="160" y="320" as="targetPoint" />
            <Array as="points">
              <mxPoint x="200" y="310" />
            </Array>
            <mxPoint as="offset" />
          </mxGeometry>
        </mxCell>
        <mxCell id="M5bQWKBqG0t6AI1R2ykT-52" value="&amp;lt;&amp;lt;verify&amp;gt;&amp;gt;" style="html=1;verticalAlign=bottom;endArrow=block;edgeStyle=elbowEdgeStyle;elbow=vertical;curved=0;rounded=0;" parent="M5bQWKBqG0t6AI1R2ykT-49" edge="1">
          <mxGeometry width="80" relative="1" as="geometry">
            <mxPoint x="80" y="420" as="sourcePoint" />
            <mxPoint x="290" y="420" as="targetPoint" />
          </mxGeometry>
        </mxCell>
        <mxCell id="M5bQWKBqG0t6AI1R2ykT-59" value="employee: Employee" style="shape=umlLifeline;perimeter=lifelinePerimeter;whiteSpace=wrap;html=1;container=1;collapsible=0;recursiveResize=0;outlineConnect=0;rounded=1;shadow=0;comic=0;labelBackgroundColor=none;strokeWidth=1;fontFamily=Verdana;fontSize=12;align=center;" parent="1" vertex="1">
          <mxGeometry x="900" y="80" width="200" height="1040" as="geometry" />
        </mxCell>
        <mxCell id="M5bQWKBqG0t6AI1R2ykT-60" value="" style="html=1;points=[];perimeter=orthogonalPerimeter;outlineConnect=0;targetShapes=umlLifeline;portConstraint=eastwest;newEdgeStyle={&quot;edgeStyle&quot;:&quot;elbowEdgeStyle&quot;,&quot;elbow&quot;:&quot;vertical&quot;,&quot;curved&quot;:0,&quot;rounded&quot;:0};" parent="M5bQWKBqG0t6AI1R2ykT-59" vertex="1">
          <mxGeometry x="95" y="447" width="10" height="50" as="geometry" />
        </mxCell>
        <mxCell id="M5bQWKBqG0t6AI1R2ykT-88" value="productList()" style="html=1;verticalAlign=bottom;endArrow=open;dashed=1;endSize=8;edgeStyle=elbowEdgeStyle;elbow=vertical;curved=0;rounded=0;entryX=1.1;entryY=0.94;entryDx=0;entryDy=0;entryPerimeter=0;" parent="M5bQWKBqG0t6AI1R2ykT-59" edge="1">
          <mxGeometry x="-0.0047" relative="1" as="geometry">
            <mxPoint x="-100" y="690" as="sourcePoint" />
            <mxPoint x="-745" y="690.2" as="targetPoint" />
            <mxPoint as="offset" />
          </mxGeometry>
        </mxCell>
        <mxCell id="M5bQWKBqG0t6AI1R2ykT-61" value="employee: Employee" style="html=1;whiteSpace=wrap;" parent="1" vertex="1">
          <mxGeometry x="700" y="480" width="90" height="30" as="geometry" />
        </mxCell>
        <mxCell id="M5bQWKBqG0t6AI1R2ykT-62" value="getString()" style="html=1;verticalAlign=bottom;endArrow=block;edgeStyle=elbowEdgeStyle;elbow=vertical;curved=0;rounded=0;" parent="1" edge="1">
          <mxGeometry x="0.0029" width="80" relative="1" as="geometry">
            <mxPoint x="490" y="440" as="sourcePoint" />
            <mxPoint x="660" y="440" as="targetPoint" />
            <Array as="points">
              <mxPoint x="610" y="440" />
            </Array>
            <mxPoint as="offset" />
          </mxGeometry>
        </mxCell>
        <mxCell id="M5bQWKBqG0t6AI1R2ykT-63" value="password" style="html=1;verticalAlign=bottom;endArrow=open;dashed=1;endSize=8;edgeStyle=elbowEdgeStyle;elbow=vertical;curved=0;rounded=0;" parent="1" source="M5bQWKBqG0t6AI1R2ykT-11" edge="1">
          <mxGeometry relative="1" as="geometry">
            <mxPoint x="650" y="460" as="sourcePoint" />
            <mxPoint x="490" y="460" as="targetPoint" />
          </mxGeometry>
        </mxCell>
        <mxCell id="M5bQWKBqG0t6AI1R2ykT-64" value="menuEmployee" style="html=1;verticalAlign=bottom;endArrow=open;dashed=1;endSize=8;edgeStyle=elbowEdgeStyle;elbow=vertical;curved=0;rounded=0;entryX=1.1;entryY=0.94;entryDx=0;entryDy=0;entryPerimeter=0;exitX=0.5;exitY=0.824;exitDx=0;exitDy=0;exitPerimeter=0;" parent="1" source="M5bQWKBqG0t6AI1R2ykT-60" edge="1">
          <mxGeometry x="-0.0047" relative="1" as="geometry">
            <mxPoint x="990" y="568" as="sourcePoint" />
            <mxPoint x="156" y="568.2" as="targetPoint" />
            <mxPoint as="offset" />
          </mxGeometry>
        </mxCell>
        <mxCell id="M5bQWKBqG0t6AI1R2ykT-65" value="employee" style="html=1;verticalAlign=bottom;endArrow=open;dashed=1;endSize=8;edgeStyle=elbowEdgeStyle;elbow=vertical;curved=0;rounded=0;" parent="1" source="M5bQWKBqG0t6AI1R2ykT-49" edge="1">
          <mxGeometry x="0.1233" relative="1" as="geometry">
            <mxPoint x="225" y="510" as="sourcePoint" />
            <mxPoint x="156" y="510" as="targetPoint" />
            <Array as="points">
              <mxPoint x="430" y="510" />
            </Array>
            <mxPoint as="offset" />
          </mxGeometry>
        </mxCell>
        <mxCell id="M5bQWKBqG0t6AI1R2ykT-72" value="productView: ProductView" style="shape=umlLifeline;perimeter=lifelinePerimeter;whiteSpace=wrap;html=1;container=1;collapsible=0;recursiveResize=0;outlineConnect=0;rounded=1;shadow=0;comic=0;labelBackgroundColor=none;strokeWidth=1;fontFamily=Verdana;fontSize=12;align=center;" parent="1" vertex="1">
          <mxGeometry x="1120" y="80" width="200" height="1040" as="geometry" />
        </mxCell>
        <mxCell id="M5bQWKBqG0t6AI1R2ykT-79" value="" style="html=1;points=[];perimeter=orthogonalPerimeter;outlineConnect=0;targetShapes=umlLifeline;portConstraint=eastwest;newEdgeStyle={&quot;edgeStyle&quot;:&quot;elbowEdgeStyle&quot;,&quot;elbow&quot;:&quot;vertical&quot;,&quot;curved&quot;:0,&quot;rounded&quot;:0};" parent="M5bQWKBqG0t6AI1R2ykT-72" vertex="1">
          <mxGeometry x="95" y="738" width="10" height="130" as="geometry" />
        </mxCell>
        <mxCell id="M5bQWKBqG0t6AI1R2ykT-80" value="9.1. getNumber()" style="html=1;verticalAlign=bottom;endArrow=block;edgeStyle=elbowEdgeStyle;elbow=vertical;curved=0;rounded=0;" parent="M5bQWKBqG0t6AI1R2ykT-72" target="M5bQWKBqG0t6AI1R2ykT-82" edge="1">
          <mxGeometry x="-0.0092" width="80" relative="1" as="geometry">
            <mxPoint x="90" y="798" as="sourcePoint" />
            <mxPoint x="-500" y="798" as="targetPoint" />
            <Array as="points">
              <mxPoint x="90" y="798" />
            </Array>
            <mxPoint x="-1" as="offset" />
          </mxGeometry>
        </mxCell>
        <mxCell id="M5bQWKBqG0t6AI1R2ykT-81" value="&lt;div&gt;number&lt;/div&gt;" style="html=1;verticalAlign=bottom;endArrow=open;dashed=1;endSize=8;edgeStyle=elbowEdgeStyle;elbow=vertical;curved=0;rounded=0;" parent="M5bQWKBqG0t6AI1R2ykT-72" edge="1">
          <mxGeometry relative="1" as="geometry">
            <mxPoint x="-450" y="818" as="sourcePoint" />
            <mxPoint x="90" y="818" as="targetPoint" />
            <Array as="points" />
            <mxPoint as="offset" />
          </mxGeometry>
        </mxCell>
        <mxCell id="M5bQWKBqG0t6AI1R2ykT-102" value="" style="html=1;verticalAlign=bottom;endArrow=open;dashed=1;endSize=8;edgeStyle=elbowEdgeStyle;elbow=vertical;curved=0;rounded=0;" parent="M5bQWKBqG0t6AI1R2ykT-72" edge="1">
          <mxGeometry x="-0.0047" relative="1" as="geometry">
            <mxPoint x="335" y="960" as="sourcePoint" />
            <mxPoint x="-960" y="960" as="targetPoint" />
            <mxPoint as="offset" />
          </mxGeometry>
        </mxCell>
        <mxCell id="M5bQWKBqG0t6AI1R2ykT-83" value="&amp;lt;&amp;lt;verify&amp;gt;&amp;gt;" style="html=1;verticalAlign=bottom;endArrow=block;edgeStyle=elbowEdgeStyle;elbow=vertical;curved=0;rounded=0;entryX=0;entryY=0.667;entryDx=0;entryDy=0;entryPerimeter=0;" parent="1" target="M5bQWKBqG0t6AI1R2ykT-84" edge="1">
          <mxGeometry width="80" relative="1" as="geometry">
            <mxPoint x="1230" y="913" as="sourcePoint" />
            <mxPoint x="1440" y="913" as="targetPoint" />
          </mxGeometry>
        </mxCell>
        <mxCell id="M5bQWKBqG0t6AI1R2ykT-84" value="product: Product" style="html=1;whiteSpace=wrap;" parent="1" vertex="1">
          <mxGeometry x="1500" y="893" width="110" height="30" as="geometry" />
        </mxCell>
        <mxCell id="M5bQWKBqG0t6AI1R2ykT-85" value="getproductList()" style="html=1;verticalAlign=bottom;endArrow=block;edgeStyle=elbowEdgeStyle;elbow=vertical;curved=0;rounded=0;" parent="1" edge="1">
          <mxGeometry x="0.5331" width="80" relative="1" as="geometry">
            <mxPoint x="730" y="740" as="sourcePoint" />
            <mxPoint x="800" y="740" as="targetPoint" />
            <Array as="points">
              <mxPoint x="160" y="740" />
            </Array>
            <mxPoint as="offset" />
          </mxGeometry>
        </mxCell>
        <mxCell id="M5bQWKBqG0t6AI1R2ykT-97" value="product: Product" style="shape=umlLifeline;perimeter=lifelinePerimeter;whiteSpace=wrap;html=1;container=1;collapsible=0;recursiveResize=0;outlineConnect=0;rounded=1;shadow=0;comic=0;labelBackgroundColor=none;strokeWidth=1;fontFamily=Verdana;fontSize=12;align=center;" parent="1" vertex="1">
          <mxGeometry x="1360" y="80" width="200" height="1040" as="geometry" />
        </mxCell>
        <mxCell id="M5bQWKBqG0t6AI1R2ykT-100" value="" style="html=1;points=[];perimeter=orthogonalPerimeter;outlineConnect=0;targetShapes=umlLifeline;portConstraint=eastwest;newEdgeStyle={&quot;edgeStyle&quot;:&quot;elbowEdgeStyle&quot;,&quot;elbow&quot;:&quot;vertical&quot;,&quot;curved&quot;:0,&quot;rounded&quot;:0};" parent="M5bQWKBqG0t6AI1R2ykT-97" vertex="1">
          <mxGeometry x="95" y="920" width="10" height="50" as="geometry" />
        </mxCell>
      </root>
    </mxGraphModel>
  </diagram>
</mxfile>
